<svg width="80" height="80" viewBox="0 0 80 80" fill="none" xmlns="http://www.w3.org/2000/svg">
<g clip-path="url(#clip0_2046_29)">
<mask id="mask0_2046_29" style="mask-type:luminance" maskUnits="userSpaceOnUse" x="0" y="0" width="80" height="80">
<path d="M80 0H0V80H80V0Z" fill="white"/>
</mask>
<g mask="url(#mask0_2046_29)">
<path d="M59.5413 71.4404C50.4404 98.6881 26.1652 107.092 13.3303 73.2569C11.5597 68.6055 16.1744 66.8807 19.4037 64.8257C21.6147 63.422 22.7799 62.211 22.6422 60.9541C22 55.0459 19.2569 38.5872 19.2569 38.5872L18.9817 38.055C18.9817 38.055 19.0459 37.9083 18.7799 38.1651C18.5046 38.4404 17.8716 41.3027 15.3854 41.3027C13.1377 41.3027 10.8716 40.3027 9.78903 33.3853C9.37619 30.8807 9.59637 24.3119 12.3854 23.1193C13.5322 22.633 14.5872 22.4587 15.6147 23.0459C16.6514 23.633 14.4221 21.0275 25.89 11.4862C33.3395 5.26605 45.1101 4.35779 49.8624 5.41284C54.6147 6.46789 59.3578 8.78899 61.4588 13.7156C64.0092 19.6789 59.0826 24.2018 60.1744 37.7982C59.9725 42.7156 60.2477 53.5046 46.7248 57.1193C44.156 57.8073 44.9542 61.5596 48.8074 62.4771C54.9542 64.4037 59.5413 69.1101 59.5413 71.4587" fill="white"/>
<path fill-rule="evenodd" clip-rule="evenodd" d="M59.5412 29.1009L59.5504 28.9725C59.9265 25.633 60.3027 22.3945 62.0366 19.4862C62.633 19.8899 62.5596 20.4037 62.3761 20.8807C60.5504 25.578 60.7247 30.4587 60.8898 35.3394L60.9265 36.6239C61.1192 42.7156 59.5963 48.2569 55.5412 52.9083C54.1284 54.5229 52.2568 55.6422 50.3577 56.6055C48.3944 57.6147 47.9816 58.4495 48.5963 60.6055L48.6697 60.844C48.7981 61.2018 48.9265 61.5688 48.5779 61.9266C48.1651 62.3486 47.7064 62.2294 47.2201 62.0917L47.1651 62.0826C42.6164 60.8089 38.3511 58.6825 34.5963 55.8165C34.0458 55.4128 33.6054 54.8716 33.1743 54.3394L33.1467 54.3028C32.9174 54.0275 32.8715 53.5872 33.1926 53.3486C33.4954 53.1193 33.7247 53.3027 33.9908 53.5138L34.0825 53.5963C36.0858 55.2218 38.5172 56.232 41.0825 56.5046C42.3119 56.633 43.5229 56.5872 44.7522 56.5413C45.4311 56.5138 46.11 56.4862 46.7981 56.4954C47.7339 56.4954 48.5137 56.0642 49.2476 55.6514L49.5045 55.5046C52.055 54.0826 54.4862 52.4954 56.1284 49.9358C57.6054 47.6422 58.5045 45.1468 59.0275 42.5138C59.688 39.2018 59.633 35.844 59.5779 32.4404C59.5504 31.3394 59.5321 30.2202 59.5321 29.1009H59.5412ZM13.3577 22.1835C15.3669 22.0275 16.477 23.211 17.422 24.5963C18.5419 26.2889 19.2461 28.2222 19.477 30.2385C19.5229 30.578 19.5687 30.9358 19.3669 31.2752C18.9541 31.3303 18.9174 31 18.9082 30.7615C18.8623 28.8624 18.0183 27.211 17.1742 25.6147C16.5687 24.4679 15.688 23.3578 14.2935 23.0826C12.7155 22.7615 11.266 24.1835 10.5504 26.0367C9.22012 29.4862 9.44948 32.8807 10.6788 36.2202C11.2109 37.6789 11.8807 39.1651 13.2293 40.1835C14.5871 41.2202 16.2293 41.0367 17.2293 39.6605L17.4128 39.4312C17.5963 39.1927 17.7798 38.9633 17.8715 38.6972C18.0642 38.1651 18.3669 37.6697 18.9082 37.7431C19.532 37.8349 19.6421 38.5046 19.7064 39.0275C20.2755 43.8336 20.9484 48.6267 21.7247 53.4037L22.266 56.9633C22.5045 58.5321 22.7798 60.789 22.5963 61.7431C22.5844 61.81 22.5752 61.8773 22.5687 61.945C22.532 62.2018 22.5137 62.4037 22.1834 62.4495C21.7339 62.5229 21.5412 62.2661 21.477 61.8624C21.266 60.3027 21.2018 59.6972 21.11 57.3119C21.0275 55 20.5963 52.7248 20.1559 50.4404L19.6972 47.9633C19.2201 45.1376 18.7522 42.2752 18.7064 39.0642L18.5229 39.3394C17.8256 40.3761 17.266 41.2202 16.2752 41.5413C15.5397 41.8231 14.7336 41.8639 13.9734 41.6577C13.2132 41.4516 12.5382 41.0092 12.0458 40.3945C10.753 38.9344 9.84489 37.1748 9.40361 35.2752C8.63296 32.156 8.49535 29.1193 9.48618 26.0459C9.96324 24.5688 11.6605 21.945 13.3577 22.1927V22.1835ZM16.532 33.8807C16.9357 34.1743 17.3027 34.4312 17.633 33.3853C17.532 29.5138 16.2843 27.0367 14.3486 26.9358C15.3761 28.2752 16.3669 29.578 16.4587 31.3853C16.0769 31.1904 15.742 30.9149 15.477 30.578C15.2935 30.3761 15.11 30.1743 14.8807 30.0275L14.6054 29.8073C14.1651 29.4771 13.7155 29.1284 12.9724 29.3945C13.321 29.9266 13.7981 30.3119 14.2843 30.6789C14.8348 31.1101 15.3853 31.5321 15.7155 32.1927C14.7431 32.8991 14.321 33.8165 14.8256 34.9358C15.266 35.8991 15.9174 36.6972 17.2018 36.7523C17.1467 36.1743 16.7706 35.7523 16.3944 35.3394C15.9357 34.844 15.5045 34.367 15.7064 33.633C15.9999 33.4954 16.2752 33.6972 16.532 33.8807Z" fill="black"/>
<path d="M96.8257 121.009L-22.7798 120.688C-22.7798 120.688 -18.4954 92.789 -7.05501 79.8624C-1.92657 74.0734 2.33948 68.3578 13.7982 64.2477C15.7615 63.5413 18.6698 56.1743 20.2294 55.4037C21.7065 54.6697 20.734 60.1927 22.1009 61.3119C24.8884 63.6378 27.831 65.7712 30.9083 67.6972C36.312 71.1101 38.7982 78.2385 38.7982 78.2385C38.7982 78.2385 41.2202 71.367 43.2386 67.9908C44.6606 65.6055 49.4129 58.5963 49.4129 58.5963C49.4129 58.5963 58.1009 61.3119 61.3211 63.7064C63.2753 65.156 62.1285 64.8349 70.9909 69.8991C78.6881 74.2936 86.2386 86.3303 90.2569 96.3211C94.5322 106.945 96.8257 121 96.8257 121V121.009Z" fill="white"/>
<path fill-rule="evenodd" clip-rule="evenodd" d="M96.2384 121.009C95.6237 118.532 95.0916 116.055 94.5595 113.569C94.3302 112.468 94.1008 111.367 93.8531 110.284C93.1008 106.89 92.11 103.587 91.0182 100.303C89.9663 97.1076 88.6783 93.9951 87.165 90.9908C85.6617 87.9232 83.945 84.9649 82.0274 82.1376C79.2751 78.1651 76.2843 74.3853 72.321 71.5505C69.4403 69.4954 66.2476 67.9541 63.0641 66.422C61.9357 65.8716 60.7797 66.1284 59.6513 66.3761L59.2843 66.4679C58.376 66.6514 57.4861 66.8532 56.587 67.055C55.5097 67.3005 54.4302 67.536 53.3485 67.7615C52.8806 67.8532 52.7063 68.1284 52.5687 68.5138L52.0182 70.1193C51.6421 71.2385 51.2568 72.3578 50.9081 73.4862C50.6696 74.2385 50.2659 74.5688 49.4678 74.5505C48.7889 74.5413 48.11 74.5505 47.4311 74.5688C46.6971 74.578 45.9724 74.5963 45.2476 74.578C43.9632 74.5505 43.3302 75.0092 43.4861 76.5505C43.6604 78.2018 43.6513 79.8624 43.6513 81.5321C43.6513 82.5138 43.6513 83.4954 43.6788 84.4862C43.7705 87.0092 43.7705 89.5596 43.7247 92.0734C43.6329 96.7798 43.6329 101.486 43.6329 106.202C43.6421 111.083 43.6513 115.972 43.5412 120.899C43.1885 121.002 42.8146 121.009 42.4586 120.917C42.3393 115.954 42.2843 111.073 42.3118 106.193C42.3302 103.275 42.3118 100.349 42.3026 97.422C42.2659 91.5596 42.2384 85.6973 42.4678 79.8349C42.4861 79.5138 42.376 79.2202 42.0182 79.211C41.8091 79.4451 41.5981 79.6775 41.3852 79.9083C40.2109 81.1927 39.0549 82.4587 38.5045 84.3028C37.743 83.422 37.4311 82.3945 37.1191 81.4128C36.7797 80.3211 36.4494 79.2752 35.5595 78.4862C35.376 79.0184 35.376 79.5046 35.376 80V83.0275L35.3944 89.3578L35.3852 97.1009C35.376 102.697 35.3669 108.284 35.3852 113.872C35.3944 114.55 35.3852 115.229 35.3577 115.899C35.321 117.606 35.2751 119.312 35.5412 121H34.2384C34.1181 119.091 34.0599 117.179 34.0641 115.266V78.6606C34.0641 76.4587 33.3577 75.8349 31.2568 75.2661C27.7705 74.3486 24.2659 73.3486 21.587 70.7064C20.5962 69.7339 19.532 70.2202 18.6513 70.6147L18.5412 70.6697C17.7522 71.0367 16.9357 71.3028 16.1192 71.5688C15.0182 71.9358 13.9173 72.3028 12.899 72.8807C12.688 72.9908 12.4953 73.1193 12.2935 73.2477C11.9114 73.5054 11.506 73.7266 11.0825 73.9083L10.8806 74C10.6054 74.1284 10.3393 74.2477 10.0274 73.9541C9.67878 73.6422 9.68796 73.3119 9.84392 72.8991L10.3669 71.3303C10.8256 69.9358 11.2843 68.5505 11.8898 67.2018L11.9815 67.0184C12.11 66.8073 12.2292 66.5963 12.11 66.3119C11.743 66.0642 11.4036 66.2477 11.1008 66.4128L10.9357 66.5046L10.7338 66.5963L10.5503 66.6881C6.66043 68.6422 2.77053 70.5963 -0.440484 73.6606C-2.73007 75.8086 -4.84672 78.1339 -6.77076 80.6147C-10.4674 85.5253 -13.4826 90.9137 -15.7341 96.633C-17.8992 102.028 -19.7708 107.55 -20.7157 113.33C-20.8992 114.394 -21.0643 115.459 -21.2386 116.532L-21.9634 120.908C-22.468 121 -22.9542 121 -23.5322 121C-23.1102 117.972 -22.624 114.945 -22.046 111.927C-21.835 110.835 -21.5597 109.761 -21.2753 108.688C-21.1102 108.028 -20.9359 107.376 -20.7891 106.716C-20.2688 104.65 -19.6473 102.61 -18.9267 100.606L-18.835 100.358C-16.9283 94.5968 -14.3412 89.0839 -11.1286 83.9358C-9.57851 81.4671 -7.82959 79.1291 -5.8992 76.945C-2.41296 72.9725 1.44025 69.422 6.27511 67.1927C8.89897 65.9817 11.3393 64.5321 13.7614 62.9908C14.4494 62.5505 14.7705 61.9174 15.1008 61.2844C15.2292 61.055 15.3485 60.8165 15.4953 60.5872C16.8439 58.4312 18.2476 56.3303 20.3669 54.8257L20.5136 54.7156C20.7797 54.5046 21.0366 54.3119 21.4036 54.5321C21.7338 54.7156 21.7155 55 21.7063 55.3028V55.5596C21.7614 57.0826 21.8898 58.5963 22.0182 60.1101C22.0641 60.5963 22.2659 61.0275 22.7522 61.2477C24.8072 62.1927 26.5595 63.5688 28.3118 64.9541C29.3669 65.7798 30.4219 66.6055 31.5412 67.3395C34.24 69.0531 36.4768 71.4032 38.0549 74.1835C38.2384 74.5138 38.376 74.8624 38.532 75.2661L38.7705 75.8716C39.6237 72.4312 41.4586 69.6147 43.2935 66.8165L44.3669 65.1651C44.5503 64.8716 44.6971 64.5596 44.8439 64.2477C45.0458 63.8257 45.2476 63.4037 45.5595 63.0184C45.7852 62.7435 45.9261 62.4091 45.9652 62.0556C46.0043 61.7022 45.9399 61.345 45.7797 61.0275C45.5779 60.5963 45.4678 60.1468 45.6421 59.6789C46.4219 59.4404 46.8347 59.8899 47.2751 60.3578L47.3669 60.4495C48.1925 59.9174 48.1008 59.2294 47.6696 58.4954C47.5228 58.2385 47.3944 57.9908 47.6146 57.7431C47.8256 57.5138 48.11 57.5413 48.3852 57.6239C51.7889 58.6055 55.1742 59.6422 58.3118 61.3486C58.743 61.5872 59.1925 61.8073 59.6421 62.0184C60.8623 62.6055 62.0825 63.1927 62.9724 64.1743C64.3852 65.7339 66.1925 66.578 67.9999 67.422C69.0825 67.9358 70.1558 68.4312 71.1558 69.0917C73.399 70.4915 75.4738 72.1446 77.3393 74.0184C79.4494 76.2477 81.4219 78.6055 83.1375 81.1376C84.6421 83.3395 86.0733 85.5963 87.321 87.9725C89.0204 91.2085 90.4919 94.5591 91.7247 98C92.8714 101.183 93.8531 104.413 94.7247 107.679C95.3485 110.046 95.7522 112.45 96.1467 114.862C96.4861 116.881 96.8164 118.899 97.2843 120.917C96.9907 121.009 96.6696 121.009 96.2384 121.009ZM36.3944 73.7798C34.276 71.2416 31.7934 69.0311 29.0274 67.2202C28.1992 66.6734 27.4056 66.076 26.6513 65.4312C25.5503 64.5321 24.4494 63.6239 23.1467 63.0275C21.6054 62.3303 20.7797 61.3395 20.7247 59.6789V59.4587C20.7155 59.1009 20.7063 58.7431 20.6604 58.3945C20.587 57.6973 19.7705 57.3303 19.3393 57.8532C19.1925 58.0367 19.0182 58.1835 18.8531 58.3395C18.6114 58.5385 18.3983 58.7701 18.2201 59.0275C16.11 62.3853 14.0182 65.7431 12.4953 69.422C12.2935 69.9174 12.1558 70.5688 12.5779 70.9725C12.9173 71.3028 13.3485 71.1284 13.7705 70.9541C13.8434 70.9224 13.9168 70.8918 13.9907 70.8624L15.7797 70.1835C16.9815 69.7064 18.1925 69.2385 19.4311 68.8624C20.743 68.4679 21.743 68.6973 22.6696 69.7339C23.6508 70.7782 24.8507 71.5927 26.1834 72.1193C27.6421 72.7615 29.1375 73.2477 30.6329 73.7431C31.9357 74.1743 33.2384 74.6055 34.5136 75.1284C36.0825 75.7706 37.5412 76.6055 37.5228 78.6606C37.5228 78.9817 37.5962 79.3028 38.1283 79.2569C38.3944 78.5229 38.3944 77.789 38.0274 77.055L37.5503 76.0826C37.1834 75.3486 36.8164 74.5963 36.3944 73.7798ZM53.0274 60.4862L53.8531 60.7798L57.9357 62.6606C58.6759 62.9966 59.416 63.3329 60.1558 63.6697C60.4494 63.8073 60.7705 63.945 60.7705 64.3211C60.7705 64.7248 60.4494 64.7798 60.1558 64.8349L59.9907 64.8716C59.5465 64.9783 59.103 65.0884 58.6604 65.2018C57.5228 65.4862 56.3852 65.7706 55.2201 65.945C52.7797 66.3119 51.4586 67.2936 50.7889 69.6422C50.7063 69.9358 50.6054 70.2294 50.4953 70.5138C50.3485 70.9266 50.2109 71.3395 50.1283 71.7431C49.899 72.844 49.1925 72.9541 48.3393 73.0275L46.7155 73.211C45.8256 73.3028 44.9357 73.4128 44.0366 73.4679C43.3026 73.5138 42.8806 73.8899 42.6054 74.4771C42.3944 74.9174 42.1558 75.3395 41.9265 75.7615C41.4861 76.5596 41.0366 77.3578 40.7705 78.2385C40.6421 78.6422 40.4586 79.2477 39.6971 79.2294C39.8806 77.0275 40.4311 74.8899 41.3026 72.8716C41.899 71.4954 42.7338 70.2752 43.5687 69.0642C44.2659 68.0367 44.9632 67.0092 45.5228 65.9083C46.5503 63.844 48.0549 62.2018 49.5779 60.5596L50.0549 60.0367C50.376 59.6789 50.5962 59.578 51.0274 59.7431C51.6971 60.0184 52.3669 60.2569 53.0458 60.4954L53.0274 60.4862Z" fill="black"/>
<path fill-rule="evenodd" clip-rule="evenodd" d="M59.9999 86.367C59.4678 83.1193 59.5412 80.0367 61.0366 76.9083C63.7064 79.9174 63.6421 83.422 63.5871 86.844L63.5687 88.2844C64.0275 88.4587 64.2752 88.2936 64.4953 88.1468L64.7155 88.0184C65.8623 87.5138 66.2109 87.7248 66.4036 89C66.7522 91.3119 66.7706 93.6514 66.7889 95.9817L66.7981 96.9908C66.7981 97.6239 66.4586 98.0826 66.0183 98.3762C64.8394 99.2506 63.7732 100.267 62.844 101.404C62.2385 102.073 61.633 102.752 60.9724 103.367C60.0642 104.193 58.5229 104.468 57.5229 103.706L56.5596 102.982C55.11 101.899 53.6697 100.826 52.2935 99.6422C51.6289 99.1295 51.1212 98.441 50.8277 97.6546C50.5342 96.8682 50.4668 96.0154 50.633 95.1927C50.7889 94.2385 50.8715 93.2661 50.9541 92.2844C51.0275 91.5138 51.0917 90.7431 51.1926 89.9725C51.4495 88.0734 51.8073 87.8532 53.532 88.6055C53.688 88.6697 53.844 88.7156 53.9999 88.7523C54.4128 88.8624 54.844 88.9817 55.2201 89.4862L55.4036 88.1101C55.5504 87.0092 55.688 85.9908 55.6788 84.9541V84.8991C55.6788 84.7523 55.6788 84.5688 55.6054 84.5138C53.9541 83.3945 54.2568 81.9266 54.9908 80.5046L55.0825 80.3211C55.6234 79.4277 55.9936 78.4415 56.1742 77.4129C56.1742 77.3028 56.2752 77.2018 56.3577 77.1009L56.4678 76.9725L56.6054 77L56.7431 77.0367C56.8807 77.9908 57.3853 78.7523 57.8807 79.5229C58.3027 80.1743 58.7247 80.8257 58.9357 81.5872C59.1742 82.4954 59.0275 83.2569 58.3761 83.8349C57.7339 84.4128 57.6421 85.0826 57.7339 85.8532L57.7981 86.4037C57.8531 86.8349 57.9082 87.2752 57.9265 87.7156C58.0091 89.3395 58.2568 89.5413 60.0275 89.2202C60.2018 88.3028 60.1467 87.3853 59.9999 86.367ZM62.688 99.3945C62.7797 99.3028 62.8898 99.2202 62.9908 99.1376C63.2082 98.9426 63.4381 98.7618 63.6788 98.5963C64.9632 97.7707 65.5871 96.7064 65.3669 95.0826C65.2476 94.1927 65.2752 93.2936 65.2752 92.3853C65.2935 91.9174 65.2935 91.4495 65.2843 90.9817V90.7615C65.2843 90.3395 65.2843 89.9083 64.9174 89.5688C64.4953 89.6606 64.1009 89.844 63.7155 90.0275C63.1651 90.2752 62.6146 90.5229 62.0183 90.5229C61.3394 90.5229 60.6605 90.5413 59.9816 90.5688C57.8164 90.6422 55.6513 90.7248 53.5687 89.8532C52.8531 89.5505 52.5687 89.7798 52.532 90.5321C52.4403 92.367 52.2109 94.1835 51.8807 95.9817L51.8715 96.0184C51.7614 96.5963 51.6421 97.2752 52.2018 97.7431C54.1863 99.3693 56.1802 100.984 58.1834 102.587C58.899 103.174 59.633 103.046 60.1192 102.349C60.5087 101.829 60.9348 101.339 61.3944 100.881C61.8256 100.422 62.2752 99.945 62.6788 99.3945H62.688ZM60.8256 82.1743C60.9357 82.2294 61.055 82.2936 61.1742 82.2477L62.2752 82.1101C61.5412 82.8624 61.0917 82.8716 60.3394 82.1835C60.5137 82.0092 60.6697 82.0918 60.8256 82.1743Z" fill="black"/>
<path d="M61.6053 4.5688C62.9815 8.22018 64.2475 10.9725 64.009 14.8165C63.9172 16.2294 62.8897 18.4587 62.5411 19.8165C62.0548 21.6881 61.0365 23.4037 60.9172 25.3853C60.8989 25.633 60.7154 25.7982 60.2934 25.8807C59.5778 24.945 59.486 23.7523 59.4493 22.6514C59.3393 19.211 59.1741 15.789 58.4035 12.4312C58.1833 11.4862 57.8255 10.5872 57.4493 9.43119C57.1099 12.5505 57.1099 12.5321 54.275 12.578C49.1741 12.6697 44.0915 12.9725 39.0457 13.7064C37.6053 13.9174 37.486 13.8257 36.4952 11.9816C35.486 12.6605 35.5136 13.8716 35.009 14.789C33.4769 17.6239 31.5044 20.0275 28.587 21.5688C27.5778 22.1009 25.5227 22.0275 23.1925 21.4128C22.3209 24.1927 20.2108 26.6055 20.9539 29.8716C21.0816 30.4068 21.0902 30.9636 20.9792 31.5025C20.8683 32.0415 20.6404 32.5495 20.3117 32.9908C19.9631 33.4862 19.5778 33.5688 19.1007 33.422C18.6145 33.2752 18.8438 32.8807 18.853 32.5413C18.8989 29.5505 18.1741 26.7156 16.4769 24.2569C14.9172 21.9816 11.2383 22.5505 10.064 25.1193C9.85301 25.5963 9.7521 26.1651 9.00898 26.6239C8.87136 24.945 8.84384 23.4128 9.01815 21.8991C9.36936 18.3737 10.1393 14.9028 11.3117 11.5596C13.0364 6.69788 16.0602 2.40166 20.0548 -0.862389C24.3057 -4.28965 29.4784 -6.37786 34.9172 -6.86239C36.0181 -6.98166 37.1099 -7.19267 38.2108 -7.30276C42.0756 -7.67599 45.9749 -7.18074 49.6237 -5.85322C54.5594 -4.1101 58.8163 -1.4312 61.0457 3.5688C61.1833 3.8899 61.3851 4.18348 61.6053 4.5688ZM17.9539 36.9816C18.3209 36.8807 18.5778 36.8991 18.6879 37.2477C19.4769 39.4679 19.5136 41.7798 19.4035 44.0826C19.3576 44.9633 17.8989 46.0275 16.6787 46.1927C15.5136 46.3394 14.431 46.1835 13.7429 45.0917C13.3759 44.5138 13.6512 43.8991 13.8622 43.211C12.5503 43.2477 11.4126 43.7615 10.2383 43.211C8.6787 42.4862 8.52274 41.7982 9.76127 40.6422L10.0824 40.2477C9.53191 39.5505 8.63283 39.4495 8.06402 38.8257C7.43099 38.156 7.33925 37.5229 7.85301 36.8532C8.53191 35.9816 9.61448 35.8165 10.3484 36.3945C10.6328 36.5963 10.8714 36.8716 11.0365 37.1835C11.3817 37.8743 11.9158 38.4531 12.5767 38.8526C13.2376 39.252 13.9983 39.4559 14.7704 39.4404C16.4402 39.4862 17.3668 38.4954 17.9539 36.9816Z" fill="black"/>
<path d="M40.1834 47.7798C39.9633 49.4037 41.6605 50.7615 43.1559 50.1651C42.7614 48.7156 41.2477 48.5688 40.1834 47.7798Z" fill="white"/>
<path fill-rule="evenodd" clip-rule="evenodd" d="M39.2018 49.3394C40.3395 51.4862 42.5046 52.0826 44.8624 50.8349C45.8257 50.2477 46.2294 49.3119 46.578 48.4404C46.7276 48.0847 46.7931 47.6993 46.7692 47.3142C46.7453 46.929 46.6328 46.5546 46.4404 46.2202C45.156 43.8532 43.578 43.789 41.6789 44.1468C39.6147 44.5413 38.211 47.4862 39.2018 49.3394ZM43.156 50.1651C41.6606 50.7615 39.9633 49.4037 40.1835 47.7798C40.5229 48.0275 40.8991 48.211 41.2752 48.3945C42.0918 48.789 42.8899 49.1743 43.156 50.1651Z" fill="black"/>
<path d="M38.7156 43.3027C39.4679 43.6422 39.422 44.156 39.1009 44.6789C38.8624 45.0917 38.5046 45.3394 38.0275 45.0459C37.5872 44.7706 37.6881 44.3945 37.9358 44.0367C38.1376 43.7615 38.211 43.367 38.7156 43.3027Z" fill="black"/>
<path d="M46.8254 39.1376C46.3667 39.156 46.0272 39.1009 45.7245 38.8716C45.4676 38.6881 45.4309 38.4312 45.486 38.1468C45.5318 37.844 45.7795 37.7982 46.0181 37.8165C47.3116 37.8807 48.5869 37.7706 49.7887 37.2294C50.0823 37.0917 50.3392 37.211 50.4951 37.4679C50.6511 37.7523 50.6786 38.0459 50.4217 38.3303C49.963 38.8624 49.3942 39.156 48.6786 39.1376H46.8346H46.8254Z" fill="black"/>
<path d="M54.4588 32.5688C54.0734 31.6972 53.5505 31.1743 52.6422 31.1284C52.0918 31.1009 52 30.6605 51.8257 30.2293C52.0092 30.0917 52.1468 29.8899 52.312 29.8807C54.2477 29.7248 56.2019 29.7156 58.1376 29.8716C58.6881 29.9082 58.9909 30.6055 58.4312 30.8257C57.5138 31.1927 57.2844 32.0367 56.734 32.6422C55.9817 33.4679 55.3395 33.4771 54.4588 32.5688ZM36.9358 29.8532C38.0551 29.9174 39.0551 29.9449 40.0551 30.0367C40.3854 30.0642 40.789 30.2018 40.789 30.6514C40.789 31.1651 40.367 31.1284 40.0276 31.1193C39.4496 31.1193 39.1376 31.367 38.8808 31.9082C38.5688 32.5871 38.2477 33.3119 37.2294 33.266C36.2661 33.2202 35.8441 32.6055 35.5688 31.8716C35.367 31.3486 35.1101 31.1009 34.5597 31.1193C34.2477 31.1284 33.9083 31.1009 33.8716 30.6697C33.8349 30.211 34.1468 30.1193 34.5138 30.0092C35.3031 29.7989 36.1261 29.7459 36.9358 29.8532Z" fill="black"/>
<path d="M43.0455 24.2385C42.5318 25.7798 42.44 25.6514 40.9354 25.3027C38.5318 24.7523 36.1006 23.5413 33.5685 24.9083C33.385 25.0092 33.1097 25 32.8712 24.9816C32.5409 24.9633 32.1189 25.1009 31.9446 24.6789C31.7519 24.2202 32.0822 23.9174 32.4308 23.7339C34.2382 22.8165 35.8712 21.5046 38.1556 21.7431C39.3299 21.8624 40.5409 21.4862 41.7611 21.5229C43.4859 21.5872 43.8162 22.0459 43.229 23.7156L43.0455 24.2477V24.2385ZM58.4125 22.2752C59.2932 22.8807 59.5593 23.8165 60.0914 24.5688C60.1911 24.6936 60.2408 24.8512 60.2306 25.0106C60.2204 25.1701 60.1512 25.3201 60.0363 25.4312C59.8162 25.6789 59.5409 25.6881 59.2932 25.5413C57.5409 24.5321 55.7244 24.9541 53.9721 25.4312C53.0363 25.6789 52.6327 25.3578 52.3941 24.5872C52.2382 24.0642 52.1281 23.5321 52.0639 22.9908C51.9446 22.0917 52.6969 21.8991 53.2565 21.8716C54.9538 21.789 56.6877 21.4587 58.4125 22.2752Z" fill="black"/>
</g>
</g>
<defs>
<clipPath id="clip0_2046_29">
<path d="M0 40C0 17.9086 17.9086 0 40 0V0C62.0914 0 80 17.9086 80 40V40C80 62.0914 62.0914 80 40 80V80C17.9086 80 0 62.0914 0 40V40Z" fill="white"/>
</clipPath>
</defs>
</svg>
